<?xml version="1.0" encoding="UTF-8"?><!DOCTYPE svg PUBLIC "-//W3C//DTD SVG 1.1//EN" "http://www.w3.org/Graphics/SVG/1.1/DTD/svg11.dtd"><svg xmlns="http://www.w3.org/2000/svg" xmlns:xlink="http://www.w3.org/1999/xlink" version="1.1" width="24" height="24" viewBox="0 0 24 24"><path d="M16 9C18.33 9 23 10.17 23 12.5L23 15L17 15L17 12.5C17 11 16.19 9.89 15.04 9.05L16 9ZM8 9C10.33 9 15 10.17 15 12.5L15 15L1 15L1 12.5C1 10.17 5.67 9 8 9ZM8 7C6.34 7 5 5.66 5 4C5 2.34 6.34 1 8 1C9.66 1 11 2.34 11 4C11 5.66 9.66 7 8 7ZM16 7C14.34 7 13 5.66 13 4C13 2.34 14.34 1 16 1C17.66 1 19 2.34 19 4C19 5.66 17.66 7 16 7ZM9 16.75L9 19L15 19L15 16.75L18.25 20L15 23.25L15 21L9 21L9 23.25L5.75 20L9 16.75Z" /></svg>