<?xml version="1.0" encoding="UTF-8"?><!DOCTYPE svg PUBLIC "-//W3C//DTD SVG 1.1//EN" "http://www.w3.org/Graphics/SVG/1.1/DTD/svg11.dtd"><svg xmlns="http://www.w3.org/2000/svg" xmlns:xlink="http://www.w3.org/1999/xlink" version="1.1" width="24" height="24" viewBox="0 0 24 24"><path d="M12 17C13.1044 17 14 16.1021 14 15C14 13.894 13.1044 13 12 13C10.8954 13 10 13.894 10 15C10 16.1021 10.8954 17 12 17ZM18 8C19.1034 8 20 8.89413 20 10L20 20C20 21.1021 19.1034 22 18 22L6 22C4.89539 22 4 21.1021 4 20L4 10C4 8.89413 4.89539 8 6 8L7 8L7 6C7 3.23714 9.23838 1 12 1C14.7604 1 17 3.23714 17 6L17 8L18 8ZM12 3C10.3431 3 9 4.34315 9 6L9 8L15 8L15 6C15 4.34315 13.6569 3 12 3Z" /></svg>