<?xml version="1.0" encoding="UTF-8"?><!DOCTYPE svg PUBLIC "-//W3C//DTD SVG 1.1//EN" "http://www.w3.org/Graphics/SVG/1.1/DTD/svg11.dtd"><svg xmlns="http://www.w3.org/2000/svg" xmlns:xlink="http://www.w3.org/1999/xlink" version="1.1" width="24" height="24" viewBox="0 0 24 24"><path d="M18 8C19.104 8 20 8.896 20 10L20 20C20 21.104 19.104 22 18 22L6 22C4.895 22 4 21.104 4 20L4 10C4 8.896 4.895 8 6 8L15 8L15 6C15 4.34323 13.6569 3 12 3C10.3431 3 9 4.34323 9 6L7 6C7 3.23902 9.23899 1 12 1C14.761 1 17 3.23902 17 6L17 8L18 8ZM12 17C13.104 17 14 16.104 14 15C14 13.896 13.104 13 12 13C10.895 13 10 13.896 10 15C10 16.104 10.895 17 12 17Z" /></svg>